<?xml version="1.0" standalone="no"?>
<!DOCTYPE svg PUBLIC "-//W3C//DTD SVG 20010904//EN"
 "http://www.w3.org/TR/2001/REC-SVG-20010904/DTD/svg10.dtd">
<svg version="1.0" xmlns="http://www.w3.org/2000/svg"
 width="260.000000pt" height="260.000000pt" viewBox="0 0 260.000000 260.000000"
 preserveAspectRatio="xMidYMid meet">
<metadata>
Created by potrace 1.11, written by Peter Selinger 2001-2013
</metadata>
<g transform="translate(0.000000,260.000000) scale(0.100000,-0.100000)"
fill="#000000" stroke="none">
<path d="M1199 2596 c-2 -2 -33 -6 -69 -9 -151 -13 -374 -62 -509 -113 -36
-14 -75 -28 -85 -31 -34 -11 -168 -84 -228 -125 -134 -90 -242 -218 -284 -334
-10 -28 -18 -82 -19 -129 -3 -121 25 -200 111 -315 126 -167 395 -316 704
-390 52 -13 97 -25 100 -27 3 -3 5 -240 5 -527 0 -485 2 -524 18 -550 35 -53
113 -58 158 -10 l24 26 2 501 c0 276 2 507 2 512 1 7 150 10 429 9 328 -1 433
2 453 12 25 12 49 51 49 80 0 24 -28 71 -47 80 -10 4 -223 8 -473 9 -507 3
-525 4 -740 75 -340 111 -546 289 -542 469 2 71 3 76 32 136 52 110 201 223
405 306 87 37 286 93 365 105 19 3 42 7 50 9 8 2 38 7 65 10 28 4 61 8 75 10
206 30 558 23 788 -16 200 -34 455 -109 532 -157 l25 -15 -20 23 c-31 35 -122
102 -200 147 -143 84 -360 158 -560 193 -60 10 -126 22 -145 25 -39 7 -464 17
-471 11z"/>
<path d="M1134 2160 c-136 -20 -247 -82 -278 -155 -16 -36 -18 -75 -5 -75 5 0
9 7 9 15 0 17 67 95 82 95 6 0 22 8 36 18 52 35 160 60 252 56 82 -2 137 -17
184 -49 44 -30 50 -10 9 31 -56 56 -171 82 -289 64z"/>
<path d="M1929 2166 c-2 -2 -26 -6 -54 -9 -138 -14 -266 -102 -276 -187 -5
-48 2 -51 24 -10 47 90 190 153 347 153 98 1 150 -13 203 -55 41 -32 48 -22
16 23 -22 31 -73 61 -123 73 -35 9 -132 17 -137 12z"/>
<path d="M1162 2039 c-118 -16 -232 -83 -232 -137 0 -58 96 -99 209 -89 181
16 303 113 236 187 -29 32 -128 50 -213 39z"/>
<path d="M1948 2044 c-2 -1 -25 -5 -51 -8 -130 -16 -234 -97 -206 -160 19 -42
72 -60 174 -60 67 0 104 5 147 21 193 72 182 190 -19 207 -23 2 -43 2 -45 0z"/>
<path d="M1203 1610 c-18 -11 -35 -31 -39 -47 -6 -22 -2 -31 26 -55 53 -43
128 -61 260 -62 118 0 156 4 200 22 20 9 9 11 -60 13 -121 3 -143 5 -221 24
-94 23 -134 52 -133 93 1 18 1 32 0 32 0 0 -16 -9 -33 -20z"/>
</g>
</svg>
